<svg xmlns="http://www.w3.org/2000/svg" xmlns:xlink="http://www.w3.org/1999/xlink" viewBox="0 0 64 64"><defs><style>.cls-1{fill:url(#linear-gradient);}.cls-2{fill:#c7cdd8;}.cls-3{fill:url(#linear-gradient-2);}.cls-4{fill:#ffabb7;}.cls-5{fill:url(#linear-gradient-3);}.cls-6{fill:url(#linear-gradient-4);}.cls-7{fill:url(#linear-gradient-5);}.cls-8{fill:url(#linear-gradient-6);}.cls-9{fill:url(#linear-gradient-7);}.cls-10{fill:#77cacb;}.cls-11{fill:url(#linear-gradient-8);}.cls-12{fill:url(#linear-gradient-9);}.cls-13{fill:url(#linear-gradient-10);}.cls-14{fill:url(#linear-gradient-11);}.cls-15{fill:url(#linear-gradient-12);}.cls-16{fill:url(#linear-gradient-13);}.cls-17{fill:url(#linear-gradient-14);}.cls-18{fill:url(#linear-gradient-15);}.cls-19{fill:url(#linear-gradient-16);}.cls-20{fill:#cf4055;}.cls-21{fill:url(#linear-gradient-17);}.cls-22{fill:url(#linear-gradient-18);}.cls-23{fill:url(#linear-gradient-19);}.cls-24{fill:url(#linear-gradient-20);}.cls-25{fill:url(#linear-gradient-21);}</style><linearGradient id="linear-gradient" x1="18" y1="63" x2="18" y2="10" gradientUnits="userSpaceOnUse"><stop offset="0" stop-color="#d4d8e1"/><stop offset="1" stop-color="#f3f4f5"/></linearGradient><linearGradient id="linear-gradient-2" x1="18" y1="15" x2="18" y2="1" gradientUnits="userSpaceOnUse"><stop offset="0" stop-color="#da5466"/><stop offset="1" stop-color="#f4929c"/></linearGradient><linearGradient id="linear-gradient-3" x1="35" y1="48" x2="49" y2="48" xlink:href="#linear-gradient"/><linearGradient id="linear-gradient-4" x1="35" y1="40" x2="44" y2="40" gradientUnits="userSpaceOnUse"><stop offset="0" stop-color="#9dd5df"/><stop offset="1" stop-color="#c3e1f5"/></linearGradient><linearGradient id="linear-gradient-5" y1="48" x2="44" y2="48" xlink:href="#linear-gradient-4"/><linearGradient id="linear-gradient-6" y1="56" x2="44" y2="56" xlink:href="#linear-gradient-4"/><linearGradient id="linear-gradient-7" x1="18" y1="63" x2="18" y2="51" xlink:href="#linear-gradient-4"/><linearGradient id="linear-gradient-8" x1="18" y1="26" x2="18" y2="20" xlink:href="#linear-gradient-4"/><linearGradient id="linear-gradient-9" x1="28" y1="26" x2="28" y2="20" xlink:href="#linear-gradient-4"/><linearGradient id="linear-gradient-10" x1="8" y1="26" x2="8" y2="20" xlink:href="#linear-gradient-4"/><linearGradient id="linear-gradient-11" x1="18" y1="36" x2="18" y2="30" xlink:href="#linear-gradient-4"/><linearGradient id="linear-gradient-12" x1="28" y1="36" x2="28" y2="30" xlink:href="#linear-gradient-4"/><linearGradient id="linear-gradient-13" x1="8" y1="36" x2="8" y2="30" xlink:href="#linear-gradient-4"/><linearGradient id="linear-gradient-14" x1="18" y1="46" x2="18" xlink:href="#linear-gradient-4"/><linearGradient id="linear-gradient-15" x1="28" y1="46" x2="28" xlink:href="#linear-gradient-4"/><linearGradient id="linear-gradient-16" x1="8" y1="46" x2="8" xlink:href="#linear-gradient-4"/><linearGradient id="linear-gradient-17" x1="50" y1="23" x2="50" y2="5" xlink:href="#linear-gradient-2"/><linearGradient id="linear-gradient-18" x1="57.19" y1="4.81" x2="61.19" y2="4.81" xlink:href="#linear-gradient-2"/><linearGradient id="linear-gradient-19" x1="38.81" y1="23.19" x2="42.81" y2="23.19" xlink:href="#linear-gradient-2"/><linearGradient id="linear-gradient-20" x1="57.19" y1="23.19" x2="61.19" y2="23.19" xlink:href="#linear-gradient-2"/><linearGradient id="linear-gradient-21" x1="38.81" y1="4.81" x2="42.81" y2="4.81" xlink:href="#linear-gradient-2"/></defs><title>Hospital</title><g id="Hospital"><polygon class="cls-1" points="35 10 35 63 1 63 1 10 11 10 25 10 35 10"/><polygon class="cls-2" points="11 6 4 6 4 10 11 10 32 10 32 6 11 6"/><rect class="cls-3" x="11" y="1" width="14" height="14"/><path class="cls-4" d="M21,7H19V5a1,1,0,0,0-2,0V7H15a1,1,0,0,0,0,2h2v2a1,1,0,0,0,2,0V9h2a1,1,0,0,0,0-2Z"/><rect class="cls-5" x="35" y="33" width="14" height="30"/><rect class="cls-2" x="35" y="29" width="12" height="4"/><rect class="cls-6" x="35" y="38" width="9" height="4"/><rect class="cls-7" x="35" y="46" width="9" height="4"/><rect class="cls-8" x="35" y="54" width="9" height="4"/><rect class="cls-9" x="9" y="51" width="18" height="12"/><rect class="cls-10" x="17" y="51" width="2" height="12"/><rect class="cls-11" x="15" y="20" width="6" height="6"/><rect class="cls-12" x="25" y="20" width="6" height="6"/><rect class="cls-13" x="5" y="20" width="6" height="6"/><rect class="cls-14" x="15" y="30" width="6" height="6"/><rect class="cls-15" x="25" y="30" width="6" height="6"/><rect class="cls-16" x="5" y="30" width="6" height="6"/><rect class="cls-17" x="15" y="40" width="6" height="6"/><rect class="cls-18" x="25" y="40" width="6" height="6"/><rect class="cls-19" x="5" y="40" width="6" height="6"/><path class="cls-20" d="M41,15H38a1,1,0,0,1,0-2h3a1,1,0,0,1,0,2Z"/><path class="cls-20" d="M62,15H59a1,1,0,0,1,0-2h3a1,1,0,0,1,0,2Z"/><path class="cls-20" d="M50,6a1,1,0,0,1-1-1V2a1,1,0,0,1,2,0V5A1,1,0,0,1,50,6Z"/><path class="cls-20" d="M50,27a1,1,0,0,1-1-1V23a1,1,0,1,1,2,0v3A1,1,0,0,1,50,27Z"/><circle class="cls-21" cx="50" cy="14" r="9"/><path class="cls-20" d="M56.36,20.36A9,9,0,0,1,41.06,13a9,9,0,0,0,17.88,0A8.92,8.92,0,0,1,56.36,20.36Z"/><path class="cls-20" d="M45.05,10.05a1,1,0,0,1-.71-.29L40.81,6.22a1,1,0,0,1,1.41-1.41l3.54,3.53a1,1,0,0,1,0,1.42A1,1,0,0,1,45.05,10.05Z"/><path class="cls-20" d="M58.49,23.49a1,1,0,0,1-.71-.3l-3.54-3.53a1,1,0,0,1,1.42-1.42l3.53,3.54a1,1,0,0,1,0,1.41A1,1,0,0,1,58.49,23.49Z"/><path class="cls-20" d="M55,10.05a1,1,0,0,1-.71-.29,1,1,0,0,1,0-1.42l3.54-3.53a1,1,0,0,1,1.41,1.41L55.66,9.76A1,1,0,0,1,55,10.05Z"/><path class="cls-20" d="M41.51,23.49a1,1,0,0,1-.7-.3,1,1,0,0,1,0-1.41l3.53-3.54a1,1,0,0,1,1.42,1.42l-3.54,3.53A1,1,0,0,1,41.51,23.49Z"/><path class="cls-20" d="M46.46,15.29a2,2,0,0,1-1.41-.58,2,2,0,0,1,0-2.83,2,2,0,0,1,2.83,0h0a2,2,0,0,1,0,2.83A2,2,0,0,1,46.46,15.29Zm0-2Z"/><circle class="cls-20" cx="52.83" cy="11.88" r="1.5"/><circle class="cls-20" cx="50" cy="18.24" r="1"/><path class="cls-22" d="M59.19,6.81a2,2,0,1,1,1.42-.59A2,2,0,0,1,59.19,6.81Zm0-2Z"/><path class="cls-23" d="M40.81,25.19a2,2,0,1,1,1.41-.58A2,2,0,0,1,40.81,25.19Zm0-2Z"/><path class="cls-24" d="M59.19,25.19a2,2,0,0,1-1.41-.58,2,2,0,1,1,1.41.58Zm0-2Z"/><path class="cls-25" d="M40.81,6.81a2,2,0,1,1,1.41-.59A2,2,0,0,1,40.81,6.81Zm0-2Z"/></g></svg>