<svg width="64" height="64" xmlns="http://www.w3.org/2000/svg" xmlns:xlink="http://www.w3.org/1999/xlink" viewBox="0 0 64 64"><defs><style>.cls-1{fill:url(#linear-gradient);}.cls-2{fill:#c7cdd8;}.cls-3{fill:url(#linear-gradient-2);}.cls-4{fill:url(#linear-gradient-3);}.cls-5{fill:url(#linear-gradient-4);}.cls-6{fill:url(#linear-gradient-5);}.cls-7{fill:url(#linear-gradient-6);}.cls-8{fill:url(#linear-gradient-7);}.cls-9{fill:url(#linear-gradient-8);}.cls-10{fill:url(#linear-gradient-9);}.cls-11{fill:url(#linear-gradient-10);}.cls-12{fill:url(#linear-gradient-11);}.cls-13{fill:url(#linear-gradient-12);}.cls-14{fill:url(#linear-gradient-13);}.cls-15{fill:url(#linear-gradient-14);}.cls-16{fill:url(#linear-gradient-15);}.cls-17{fill:url(#linear-gradient-16);}.cls-18{fill:url(#linear-gradient-17);}.cls-19{fill:#cf4055;}.cls-20{fill:#231f20;}</style><linearGradient id="linear-gradient" x1="18" y1="63" x2="18" y2="10" gradientUnits="userSpaceOnUse"><stop offset="0" stop-color="#d4d8e1"/><stop offset="1" stop-color="#f3f4f5"/></linearGradient><linearGradient id="linear-gradient-2" x1="18" y1="15" x2="18" y2="1" gradientUnits="userSpaceOnUse"><stop offset="0" stop-color="#da5466"/><stop offset="1" stop-color="#f4929c"/></linearGradient><linearGradient id="linear-gradient-3" x1="35" y1="48" x2="49" y2="48" xlink:href="#linear-gradient"/><linearGradient id="linear-gradient-4" x1="35" y1="40" x2="44" y2="40" gradientUnits="userSpaceOnUse"><stop offset="0" stop-color="#9dd5df"/><stop offset="1" stop-color="#c3e1f5"/></linearGradient><linearGradient id="linear-gradient-5" y1="48" x2="44" y2="48" xlink:href="#linear-gradient-4"/><linearGradient id="linear-gradient-6" y1="56" x2="44" y2="56" xlink:href="#linear-gradient-4"/><linearGradient id="linear-gradient-7" x1="18" y1="63" x2="18" y2="51" xlink:href="#linear-gradient-4"/><linearGradient id="linear-gradient-8" x1="18" y1="26" x2="18" y2="20" xlink:href="#linear-gradient-4"/><linearGradient id="linear-gradient-9" x1="28" y1="26" x2="28" y2="20" xlink:href="#linear-gradient-4"/><linearGradient id="linear-gradient-10" x1="8" y1="26" x2="8" y2="20" xlink:href="#linear-gradient-4"/><linearGradient id="linear-gradient-11" x1="18" y1="36" x2="18" y2="30" xlink:href="#linear-gradient-4"/><linearGradient id="linear-gradient-12" x1="28" y1="36" x2="28" y2="30" xlink:href="#linear-gradient-4"/><linearGradient id="linear-gradient-13" x1="8" y1="36" x2="8" y2="30" xlink:href="#linear-gradient-4"/><linearGradient id="linear-gradient-14" x1="18" y1="46" x2="18" xlink:href="#linear-gradient-4"/><linearGradient id="linear-gradient-15" x1="28" y1="46" x2="28" xlink:href="#linear-gradient-4"/><linearGradient id="linear-gradient-16" x1="8" y1="46" x2="8" xlink:href="#linear-gradient-4"/><linearGradient id="linear-gradient-17" x1="51" y1="22" x2="51" y2="4" xlink:href="#linear-gradient-2"/></defs><title>Hospital</title><g id="Hospital"><polygon class="cls-1" points="35 10 35 63 1 63 1 10 11 10 25 10 35 10"/><polygon class="cls-2" points="11 6 4 6 4 10 11 10 32 10 32 6 11 6"/><rect class="cls-3" x="11" y="1" width="14" height="14"/><rect class="cls-4" x="35" y="33" width="14" height="30"/><rect class="cls-2" x="35" y="29" width="12" height="4"/><rect class="cls-5" x="35" y="38" width="9" height="4"/><rect class="cls-6" x="35" y="46" width="9" height="4"/><rect class="cls-7" x="35" y="54" width="9" height="4"/><rect class="cls-8" x="9" y="51" width="18" height="12"/><rect class="cls-9" x="15" y="20" width="6" height="6"/><rect class="cls-10" x="25" y="20" width="6" height="6"/><rect class="cls-11" x="5" y="20" width="6" height="6"/><rect class="cls-12" x="15" y="30" width="6" height="6"/><rect class="cls-13" x="25" y="30" width="6" height="6"/><rect class="cls-14" x="5" y="30" width="6" height="6"/><rect class="cls-15" x="15" y="40" width="6" height="6"/><rect class="cls-16" x="25" y="40" width="6" height="6"/><rect class="cls-17" x="5" y="40" width="6" height="6"/><circle class="cls-18" cx="51" cy="13" r="9"/><path class="cls-19" d="M57.36,19.36A9,9,0,0,1,42.06,12a9,9,0,0,0,17.88,0A8.92,8.92,0,0,1,57.36,19.36Z"/><path class="cls-20" d="M15,9h2v2a1,1,0,0,0,2,0V9h2a1,1,0,0,0,0-2H19V5a1,1,0,0,0-2,0V7H15a1,1,0,0,0,0,2Z"/><path class="cls-20" d="M49,32H48V29a1,1,0,0,0-1-1H36V10a1,1,0,0,0-1-1H33V6a1,1,0,0,0-1-1H26V1a1,1,0,0,0-1-1H11a1,1,0,0,0-1,1V5H4A1,1,0,0,0,3,6V9H1a1,1,0,0,0-1,1V63a1,1,0,0,0,1,1H49a1,1,0,0,0,1-1V33A1,1,0,0,0,49,32Zm-3-2v2H36V30ZM36,39h7v2H36Zm0,8h7v2H36Zm0,8h7v2H36ZM31,7V9H26V7ZM12,2H24V14H12V2ZM5,7h5V9H5ZM2,11h8v4a1,1,0,0,0,1,1H25a1,1,0,0,0,1-1V11h8V62H28V51a1,1,0,0,0-1-1H9a1,1,0,0,0-1,1V62H2Zm8,41h7V62H10Zm9,10V52h7V62Zm29,0H36V59h8a1,1,0,0,0,1-1V54a1,1,0,0,0-1-1H36V51h8a1,1,0,0,0,1-1V46a1,1,0,0,0-1-1H36V43h8a1,1,0,0,0,1-1V38a1,1,0,0,0-1-1H36V34H48Z"/><path class="cls-20" d="M15,27h6a1,1,0,0,0,1-1V20a1,1,0,0,0-1-1H15a1,1,0,0,0-1,1v6A1,1,0,0,0,15,27Zm1-6h4v4H16Z"/><path class="cls-20" d="M25,27h6a1,1,0,0,0,1-1V20a1,1,0,0,0-1-1H25a1,1,0,0,0-1,1v6A1,1,0,0,0,25,27Zm1-6h4v4H26Z"/><path class="cls-20" d="M5,27h6a1,1,0,0,0,1-1V20a1,1,0,0,0-1-1H5a1,1,0,0,0-1,1v6A1,1,0,0,0,5,27Zm1-6h4v4H6Z"/><path class="cls-20" d="M15,37h6a1,1,0,0,0,1-1V30a1,1,0,0,0-1-1H15a1,1,0,0,0-1,1v6A1,1,0,0,0,15,37Zm1-6h4v4H16Z"/><path class="cls-20" d="M25,37h6a1,1,0,0,0,1-1V30a1,1,0,0,0-1-1H25a1,1,0,0,0-1,1v6A1,1,0,0,0,25,37Zm1-6h4v4H26Z"/><path class="cls-20" d="M5,37h6a1,1,0,0,0,1-1V30a1,1,0,0,0-1-1H5a1,1,0,0,0-1,1v6A1,1,0,0,0,5,37Zm1-6h4v4H6Z"/><path class="cls-20" d="M15,47h6a1,1,0,0,0,1-1V40a1,1,0,0,0-1-1H15a1,1,0,0,0-1,1v6A1,1,0,0,0,15,47Zm1-6h4v4H16Z"/><path class="cls-20" d="M25,47h6a1,1,0,0,0,1-1V40a1,1,0,0,0-1-1H25a1,1,0,0,0-1,1v6A1,1,0,0,0,25,47Zm1-6h4v4H26Z"/><path class="cls-20" d="M11,47a1,1,0,0,0,1-1V40a1,1,0,0,0-1-1H5a1,1,0,0,0-1,1v6a1,1,0,0,0,1,1ZM6,41h4v4H6Z"/><path class="cls-20" d="M63,12H61a9.85,9.85,0,0,0-2.21-5.33l.94-.94a2.24,2.24,0,0,0,.51.07A2,2,0,0,0,61.61,2.4h0a2,2,0,0,0-2.83,0,2,2,0,0,0-.59,1.41,1.82,1.82,0,0,0,.08.52l-.94.93A10,10,0,0,0,52,3.06V1a1,1,0,0,0-2,0V3.06a10,10,0,0,0-5.33,2.2l-.94-.93a1.82,1.82,0,0,0,.08-.52,2,2,0,0,0-.59-1.41h0a2,2,0,1,0-1.41,3.41,2.24,2.24,0,0,0,.51-.07l.94.94A9.85,9.85,0,0,0,41.05,12H39a1,1,0,0,0,0,2h2.06a9.92,9.92,0,0,0,2.21,5.33l-.94.93a2,2,0,1,0-.51,3.93,2,2,0,0,0,1.41-.59,2,2,0,0,0,.59-1.41,1.7,1.7,0,0,0-.08-.51l.94-.94A9.93,9.93,0,0,0,50,23V25a1,1,0,1,0,2,0V23a9.93,9.93,0,0,0,5.33-2.2l.94.94a1.7,1.7,0,0,0-.08.51,2,2,0,0,0,.59,1.41,2,2,0,0,0,1.41.59,2,2,0,0,0,2-2,2,2,0,0,0-.58-1.41h0a2,2,0,0,0-1.93-.51l-.94-.93A9.92,9.92,0,0,0,61,14H63a1,1,0,1,0,0-2Zm-6.35,5.24a1,1,0,0,0-1.42,0,1,1,0,0,0,0,1.41l.66.66A7.92,7.92,0,0,1,51,21h0a7.92,7.92,0,0,1-4.89-1.68l.66-.66a1,1,0,0,0,0-1.41,1,1,0,0,0-1.42,0l-.65.66A7.94,7.94,0,0,1,43,13v0a8,8,0,0,1,1.68-4.88l.66.65a1,1,0,0,0,1.42-1.41l-.66-.66A8,8,0,0,1,51,5h0A8,8,0,0,1,55.9,6.69l-.66.66a1,1,0,1,0,1.42,1.41l.66-.65A8,8,0,0,1,59,13v0a7.94,7.94,0,0,1-1.69,4.88Z"/><path class="cls-20" d="M46.05,10.89a2,2,0,1,0,2.83,0A2,2,0,0,0,46.05,10.89Z"/><circle class="cls-20" cx="53.83" cy="10.89" r="1.5"/><circle class="cls-20" cx="51" cy="17.25" r="1"/></g></svg>